<svg width="500" height="137" viewBox="0 0 500 137" fill="none" xmlns="http://www.w3.org/2000/svg">
<path d="M209.455 0.393609C217.073 0.60111 225.298 0.353082 233.036 0.466401C232.396 11.5634 233.112 23.9448 232.867 35.1776C232.75 40.48 233.055 45.663 232.46 50.9943C238.311 45.4154 244.139 42.3955 252.345 41.6196C264.766 40.5033 277.128 44.3539 286.697 52.3222C307.66 69.6458 307.607 101.648 290.71 121.884C275.515 137.496 249.855 143.663 232.61 127.465C233.017 131.061 233.063 134.119 228.5 134.352C222.152 134.676 215.852 134.469 209.478 134.727C208.909 90.5205 209.38 44.6818 209.455 0.393609ZM232.821 72.5635C232.919 82.4797 233.161 95.1965 232.72 104.96C239.366 113.743 251.463 117.064 261.752 113.376C276.574 107.983 283.212 93.902 277.734 79.0767C275.534 73.0566 270.975 68.1842 265.098 65.5753C260.611 63.5944 255.694 62.7731 250.804 63.1877C243.231 63.9959 237.968 67.1831 232.821 72.5635Z" fill="#FE5B5F"/>
<path d="M45.9085 41.4811C50.0057 40.5415 57.6467 42.7763 61.2936 44.4416C63.3326 45.3725 69.1772 50.0276 70.4246 49.9773C70.2397 49.371 70.179 48.7822 70.1741 48.1492C70.165 47.0479 70.3681 45.7909 71.2007 44.9891C73.303 42.9636 89.6719 43.8214 93.5253 43.8109L93.5664 134.58C89.0514 134.443 73.5909 135.33 71.0346 133.288C69.6677 131.39 70.0912 129.587 70.3094 127.296C66.6556 130.904 64.8125 132.117 60.3144 134.39C56.461 135.838 52.4011 136.667 48.2862 136.846C36.0523 137.365 24.1114 133.028 15.0851 124.787C5.50541 115.974 0.438085 104.127 0.0304372 91.2431C-0.856818 63.188 17.7292 42.5842 45.9085 41.4811ZM47.2987 114.881C56.1087 114.963 64.8434 113.164 70.1922 105.331C70.0234 95.7466 69.7672 82.1269 70.1963 72.7169C64.3009 65.4694 56.7862 62.8781 47.6683 63.5756C40.4693 64.2953 33.8904 66.7894 29.2515 72.5053C20.7764 82.9475 21.7473 100.519 32.6185 109.009C37.5826 112.887 41.3856 113.841 47.2987 114.881Z" fill="#FE5B5F"/>
<path d="M357.839 41.479C358.028 41.4404 358.171 41.4059 358.367 41.4025C368.317 41.2569 377.54 44.2276 385.075 50.7701C397.662 61.696 395.051 76.5002 395.364 91.2017C395.673 105.617 394.772 120.621 395.507 135.026C391.088 134.463 377.103 134.843 371.93 134.883L371.926 102.525C371.926 94.271 372.363 85.4682 371.779 77.2796C370.754 62.8239 357.941 60.1782 345.81 64.3789C341.628 66.1391 338.998 68.0276 335.792 71.1581C335.871 92.2403 335.573 113.495 335.875 134.556C327.869 134.454 320.36 134.398 312.365 134.729L312.312 43.8081C317.918 43.942 323.54 43.6201 329.153 43.8419C334.71 44.061 334.465 46.4666 334.134 51.1412C341.307 43.9927 347.927 41.9173 357.839 41.479Z" fill="#FE5B5F"/>
<path d="M189.22 41.4814C191.16 41.1497 197.96 42.0274 200.115 42.403C200.149 49.661 200.134 56.9194 200.07 64.1771C187.905 61.1377 178.056 62.3767 168.86 71.3248C169.022 92.5155 168.619 113.831 168.943 135.01C164.369 134.563 156.457 134.814 151.691 134.829C149.562 134.801 147.502 134.907 145.377 135.001L145.362 43.8165C151.457 43.947 157.599 43.5962 163.694 43.8821C169.101 44.1361 168.75 46.4517 168.351 50.8985C174.428 45.2746 180.807 41.8045 189.22 41.4814Z" fill="#FE5B5F"/>
<path d="M107.569 43.7421C115.18 44.028 123.517 43.8513 131.184 43.8258L131.165 133.99L130.657 134.496C123.031 134.762 115.636 134.368 107.675 134.737C107.437 124.519 107.618 113.588 107.622 103.298L107.569 43.7421Z" fill="#FE5B5F"/>
<path d="M116.691 0.228594C122.308 -0.734617 128.012 1.38917 131.618 5.78685C135.223 10.1841 136.173 16.1747 134.101 21.4635C132.028 26.7527 127.259 30.5211 121.615 31.326C113.059 32.5463 105.107 26.6972 103.761 18.1945C102.415 9.69223 108.176 1.68936 116.691 0.228594Z" fill="#FE5B5F"/>
<path d="M407.481 0.408727C415.362 0.375707 423.248 0.392968 431.129 0.460509C430.756 13.6933 431.144 27.0079 431.009 40.2497C430.975 43.8365 431.065 47.3656 430.572 50.9321C434.577 47.3554 438.099 44.6767 443.306 43.0894C453.799 39.8929 466.488 41.509 476.095 46.6669C490.122 54.1966 495.404 63.584 500 77.92V100.109C497.397 108.531 494.914 115.079 488.848 121.793C480.56 130.832 469.016 136.236 456.741 136.821C446.181 137.371 438.51 134.563 430.719 127.562C430.949 135.861 427.765 134.319 420.535 134.553C416.195 134.694 411.949 134.476 407.582 134.741C407.119 119.975 407.484 103.64 407.484 88.6864L407.481 0.408727ZM430.975 72.6563C431.031 82.5383 431.318 95.1422 430.805 104.842C436.668 113.555 449.402 116.901 459.111 113.621C466.118 111.161 471.34 107.981 474.795 100.998C477.986 94.5528 478.284 85.9908 475.846 79.2337C473.755 73.2582 469.306 68.39 463.53 65.7525C459.16 63.7206 453.629 62.7154 448.822 63.1946C442.342 63.903 435.364 67.1435 431.265 72.2751C431.167 72.4004 431.069 72.5272 430.975 72.6563Z" fill="#FE5B5F"/>
</svg>
